HIERARCHY
ROOT Hips
{
  OFFSET -102.467 93.6631 130.069
  CHANNELS 6 Xposition Yposition Zposition Zrotation Xrotation Yrotation
  JOINT LeftUpLeg
  {
    OFFSET 8.64259 1.95398 -2.38835
    CHANNELS 3 Zrotation Xrotation Yrotation
    JOINT LeftLeg
    {
      OFFSET 43.7702 0 0
      CHANNELS 3 Zrotation Xrotation Yrotation
      JOINT LeftFoot
      {
        OFFSET 40.6238 0 0
        CHANNELS 3 Zrotation Xrotation Yrotation
        JOINT LeftToeBase
        {
          OFFSET 12.7242 0 0
          CHANNELS 3 Zrotation Xrotation Yrotation
          End Site
          {
            OFFSET 0 0 0
          }
        }
      }
    }
  }
  JOINT RightUpLeg
  {
    OFFSET -8.2249 1.95398 -2.59336
    CHANNELS 3 Zrotation Xrotation Yrotation
    JOINT RightLeg
    {
      OFFSET 43.5653 0 0
      CHANNELS 3 Zrotation Xrotation Yrotation
      JOINT RightFoot
      {
        OFFSET 40.6238 0 0
        CHANNELS 3 Zrotation Xrotation Yrotation
        JOINT RightToeBase
        {
          OFFSET 12.7242 0 0
          CHANNELS 3 Zrotation Xrotation Yrotation
          End Site
          {
            OFFSET 0 0 0
          }
        }
      }
    }
  }
  JOINT Spine
  {
    OFFSET 0.165834 0.87714 6.61349
    CHANNELS 3 Zrotation Xrotation Yrotation
    JOINT Spine1
    {
      OFFSET 7.38963 1.71661e-005 0
      CHANNELS 3 Zrotation Xrotation Yrotation
      JOINT Spine2
      {
        OFFSET 11.9445 1.14441e-005 0
        CHANNELS 3 Zrotation Xrotation Yrotation
        JOINT Spine3
        {
          OFFSET 14.7254 4.19617e-005 0
          CHANNELS 3 Zrotation Xrotation Yrotation
          JOINT Spine4
          {
            OFFSET 10.9679 0 0
            CHANNELS 3 Zrotation Xrotation Yrotation
            JOINT RightShoulder
            {
              OFFSET 2.46616 -1.6653 3.69651
              CHANNELS 3 Zrotation Xrotation Yrotation
              JOINT RightArm
              {
                OFFSET 13.0012 0 0
                CHANNELS 3 Zrotation Xrotation Yrotation
                JOINT RightForeArm
                {
                  OFFSET 28.7848 1.52588e-005 0
                  CHANNELS 3 Zrotation Xrotation Yrotation
                  JOINT RightHand
                  {
                    OFFSET 26.5688 1.52588e-005 0
                    CHANNELS 3 Zrotation Xrotation Yrotation
                    End Site
                    {
                      OFFSET 0 0 0
                    }
                  }
                }
              }
            }
            JOINT LeftShoulder
            {
              OFFSET 2.38034 -1.29275 -3.7523
              CHANNELS 3 Zrotation Xrotation Yrotation
              JOINT LeftArm
              {
                OFFSET 16.3182 6.10351e-005 0
                CHANNELS 3 Zrotation Xrotation Yrotation
                JOINT LeftForeArm
                {
                  OFFSET 27.0901 0 0
                  CHANNELS 3 Zrotation Xrotation Yrotation
                  JOINT LeftHand
                  {
                    OFFSET 24.5451 1.52588e-005 0
                    CHANNELS 3 Zrotation Xrotation Yrotation
                    End Site
                    {
                      OFFSET 0 0 0
                    }
                  }
                }
              }
            }
            JOINT Neck
            {
              OFFSET 5.0226 -0.0266342 0
              CHANNELS 3 Zrotation Xrotation Yrotation
              JOINT Head
              {
                OFFSET 6.69363 2.86102e-005 0
                CHANNELS 3 Zrotation Xrotation Yrotation
                End Site
                {
                  OFFSET 0 0 0
                }
              }
            }
          }
        }
      }
    }
  }
}
MOTION
Frames:	15
Frame Time:	0.0416667
-75.5011 26.4694 54.8547 -5.35298 1.05735 -86.4623 -167.985 24.4531 103.095 -42.1421 -9.10555 0.641641 55.9987 -3.53539 -9.8527 62.1504 -3.84628 0.539406 172.707 41.8507 60.954 -65.5642 -4.19154 -1.44103 72.0043 11.195 34.6916 69.7753 8.42218 33.7694 -0.458225 7.6363 -91.0426 11.5857 -1.39966 -1.93303 -0.0858784 -1.48337 -1.86958 -22.6117 -0.754173 -2.26417 -2.59907 -0.75415 -2.26419 100.388 -51.9815 -84.8754 15.0684 -10.2766 7.45588 -53.322 23.0259 -107.694 -62.1034 -12.498 15.7301 -69.572 -9.12036 120.264 -60.5528 -35.2895 -122.074 24.0404 5.22981 -82.8047 2.15283 0.242022 4.03166 65.4007 6.52075 15.0322 -28.1654 -0.20577 -22.603 
-73.3019 25.6365 55.6582 -4.17033 6.46427 -87.1762 -169.037 13.9241 102.241 -24.2682 -9.99108 1.38675 62.1956 -1.05661 -13.5536 86.8173 0.682919 13.2403 176.375 47.2049 59.2671 -68.742 -2.92186 -2.20144 71.5747 11.9091 35.7314 71.2244 11.9815 39.5548 -0.23772 7.42444 -91.2311 12.0081 -1.05321 -2.33911 0.335531 -1.15511 -2.29051 -22.1832 -0.301774 -2.54736 -2.17054 -0.301797 -2.54735 99.6621 -51.1968 -86.0193 9.47285 -13.1691 3.18965 -51.745 26.0535 -109.079 -72.9955 -11.7426 10.8442 -71.7994 -6.14349 115.419 -63.4149 -50.7186 -118.633 21.708 5.96468 -78.4779 3.20345 0.263152 2.85491 79.2386 4.94122 8.02427 -39.5247 2.45312 -15.2374 
-71.1033 22.3737 57.3668 -1.24047 14.1184 -89.3665 -170.802 5.24383 99.5282 -11.9454 -16.2666 2.96231 71.7181 2.60688 -17.7598 89.505 0.0322464 11.9634 179.743 53.5234 56.1568 -72.1032 -4.19513 -2.38901 72.2339 11.8601 35.782 69.1048 6.75464 30.9975 0.112675 6.90642 -91.3487 13.0483 -0.424651 -2.64647 1.37479 -0.540668 -2.62526 -21.1389 0.390052 -2.65181 -1.12621 0.390072 -2.65179 97.7314 -50.5351 -89.0376 7.48167 -11.5396 2.93676 -50.3842 30.2515 -113.734 -69.4135 -11.58 11.7114 -71.8819 -2.29325 116.989 -60.2832 -59.3675 -110.41 19.672 6.6977 -73.8972 3.9496 0.238228 1.61172 89.3489 2.61859 1.79656 -48.0741 5.426 -10.9107 
-69.343 20.1015 60.1856 -4.57805 16.817 -91.7583 -173.289 -0.36771 96.6258 -13.9801 -12.8826 3.48057 76.8654 3.32154 -20.8277 87.9556 -4.58352 4.7999 -179.072 55.119 48.8627 -76.3591 -6.3593 -2.49189 73.3902 10.8181 34.0908 65.5131 7.44073 32.6005 0.327525 7.08964 -91.4497 12.6849 -0.0415808 -2.89264 1.01076 -0.168809 -2.88802 -21.5001 0.829371 -2.7716 -1.48743 0.829361 -2.77161 97.7784 -48.2222 -89.1656 2.84227 -8.93909 -0.753152 -49.3158 30.6389 -115.914 -66.6704 -12.8816 14.6071 -71.1428 -10.9509 115.124 -43.6494 -61.7337 -101.407 19.2583 4.92125 -66.5547 6.52995 0.170327 -0.848683 78.0725 5.7323 2.17337 -42.7791 7.23508 -10.9719 
-68.8417 17.3037 62.4025 -6.33608 22.7094 -95.4492 -175.503 -4.40824 91.8856 -16.8149 -10.9734 3.27365 77.8244 1.47925 -23.7569 80.7458 -7.36177 -1.2126 -178.33 58.808 44.1208 -84.4655 -9.78 -2.29351 72.2063 9.92577 31.6604 66.1255 4.18558 26.1948 0.448945 6.99829 -91.6142 12.8678 0.118219 -3.24154 1.19281 -0.0244871 -3.2436 -21.3127 1.08651 -3.0565 -1.30003 1.08651 -3.0565 98.9753 -41.0849 -87.752 -1.00636 -15.4576 -9.23765 -49.3648 28.7876 -110.897 -67.337 -11.7515 12.639 -71.9999 -7.08591 114.238 -35.8131 -59.3157 -81.4254 24.3701 7.39687 -70.6123 11.6127 0.791839 2.81479 49.101 9.72021 3.78184 -20.8378 8.25663 -9.12651 
-68.8059 16.7147 62.9601 -7.4316 23.3765 -98.0409 -175.658 -6.37879 90.54 -17.0756 -11.22 2.75054 77.3298 -1.52577 -29.7166 74.3809 -8.63297 -5.7025 173.137 56.4239 47.8371 -89.8353 -13.5419 -1.44957 69.5426 8.96131 28.4162 70.0333 7.45113 32.0415 0.868815 7.08427 -91.6166 12.7086 0.953336 -3.34364 1.03366 0.805349 -3.3823 -21.477 1.91378 -2.90316 -1.46429 1.91378 -2.90316 101.15 -38.0207 -84.0249 -0.646193 -16.004 -11.129 -46.5351 28.7318 -113.941 -64.2014 -12.002 14.1329 -74.9507 -3.41686 106.178 -45.8598 -63.0619 -66.5929 17.7718 -1.16077 -90.5029 16.4195 1.47429 5.10912 35.3447 11.1612 10.3843 -9.7198 6.36636 -9.39586 
-68.2224 16.4163 61.7097 -7.31438 20.0627 -100.62 -176.758 -4.34487 89.1709 -21.6388 -19.122 2.76976 76.1181 -3.07817 -32.0529 73.5116 -9.24148 -7.23443 162.662 46.7859 50.8489 -86.5773 -14.5955 0.321014 70.7342 9.15599 29.3493 64.5236 5.79465 29.3895 1.01463 7.14676 -91.343 12.5847 1.37553 -2.84226 0.911086 1.24917 -2.9 -21.6117 2.16593 -2.29788 -1.59906 2.16596 -2.29787 102.501 -38.1545 -81.5474 1.35835 -16.6929 -7.84127 -47.2692 32.4063 -116.687 -64.7519 -12.1503 14.2231 -74.2214 -16.1379 106.412 -30.1875 -58.9849 -30.1338 18.5499 -0.733486 -136.784 14.4733 1.23956 4.56741 41.2732 13.3999 18.6908 -14.1964 4.46449 -14.8876 
-66.7254 16.9142 59.7397 -8.6786 14.799 -102.372 -175.914 -1.00521 89.1167 -28.1766 -22.6173 2.47244 73.2095 -5.61323 -34.6608 77.8659 -6.26005 -0.161934 157.09 33.4284 51.0987 -79.1115 -11.5411 1.61503 70.7975 9.87068 30.8581 59.357 5.57169 29.3456 0.500937 7.20919 -90.4182 12.4625 0.796287 -0.926589 0.791453 0.754718 -0.960756 -21.7442 1.03794 -0.644451 -1.73158 1.03795 -0.64447 100.499 -43.1974 -84.9373 2.20018 -14.7806 -1.18802 -50.1852 34.7437 -116.982 -64.6017 -13.3615 16.0845 -72.4811 -36.0545 106.531 -26.3658 -40.6764 -16.2522 14.1736 -17.1625 -147.132 16.3277 1.32803 4.21841 44.8116 12.629 19.9654 -16.507 3.15987 -18.4208 
-64.2804 17.5891 56.9533 -9.3157 6.02938 -104.502 -175.423 4.58933 91.1127 -35.0633 -21.9681 2.63944 73.5043 -5.87947 -34.562 79.0205 -5.33034 1.93014 156.35 20.1548 52.9271 -71.4062 -8.98396 1.38649 71.0078 9.91823 31.1695 52.3066 5.90467 30.8736 -0.112411 7.08598 -89.2799 12.6989 0.120779 1.42476 1.02721 0.18332 1.41807 -21.5019 -0.312977 1.39523 -1.48923 -0.312985 1.39522 104.305 -43.6324 -78.5371 6.37106 -14.038 1.65845 -41.5575 30.3147 -122.771 -71.5243 -11.8475 11.4545 -73.3787 -44.4916 104.114 -27.958 -28.0253 -25.8869 22.2372 -31.7119 -144.988 14.6418 1.29554 4.87689 45.8453 7.37418 16.0588 -15.4209 -0.0304907 -18.3 
-61.9907 18.8302 54.865 -8.72974 0.18161 -102.424 -174.102 12.5489 95.7416 -42.0996 -17.9818 2.97307 72.8419 -6.69029 -34.1823 83.5337 -6.91403 0.305151 159.462 11.7295 59.3017 -61.7901 -5.041 0.26348 69.555 10.3415 32.5581 47.6666 5.31325 29.8597 -0.343733 7.10485 -89.0044 12.661 -0.207467 2.01369 0.988433 -0.118677 2.02086 -21.5355 -0.802979 1.85834 -1.52287 -0.802976 1.85834 105.779 -44.667 -76.1085 8.21762 -5.44725 0.838307 -32.6319 22.2078 -129.447 -70.0045 -11.0135 10.7316 -73.6243 -34.8435 104.581 -27.4986 -20.5218 -40.7323 21.1208 -25.5864 -140.529 10.8149 1.3102 7.86895 44.9075 9.32988 26.879 -16.2205 -2.8173 -28.5889 
-59.4348 21.1307 53.7333 -5.81994 -7.78271 -101.864 -174.754 24.2002 94.9541 -48.7828 -16.6755 2.59945 72.7619 -5.78796 -32.0468 91.0466 -4.42578 5.39119 162.029 12.1945 62.154 -48.6797 1.98325 -0.214567 68.1695 9.95595 31.9118 43.642 7.33771 35.9852 -0.132136 7.21091 -89.0184 12.4462 0.204224 1.93732 0.773829 0.289272 1.92645 -21.75 -0.387344 1.90917 -1.7373 -0.387359 1.90917 105.935 -44.2491 -75.7695 6.54638 17.7193 2.18123 -25.9967 14.8244 -141.216 -69.9905 -12.6017 13.107 -74.2766 -32.6956 103.617 -28.5901 -12.7086 -60.6461 30.9185 -28.1389 -129.239 7.78418 1.18858 9.91081 39.5003 10.1942 46.5938 -15.9298 -9.81341 -40.0761 
-55.8748 23.5184 52.302 -4.86103 -16.3938 -102.351 -174.777 34.8229 93.0688 -57.5425 -12.19 1.82665 73.1387 -3.78693 -28.0819 92.1679 3.70628 17.185 163.047 11.5582 61.5858 -33.5858 5.31686 -0.558997 62.8956 7.38672 22.3711 45.8917 6.65976 34.6306 -0.244549 7.32587 -88.9437 12.2172 0.0142538 2.10654 0.544574 0.106945 2.10386 -21.9778 -0.619378 2.0135 -1.9652 -0.619388 2.01351 104.426 -48.6466 -78.5971 9.48015 47.7788 -8.62372 -23.7314 16.0849 -151.767 -53.2966 -12.2606 19.3857 -75.0944 -32.2745 102.066 -29.6893 -14.2156 -75.1926 35.1783 -23.3859 -121.147 5.06004 0.822789 9.65316 35.4004 9.64907 59.4708 -18.5769 -13.6077 -45.5313 
-51.2192 23.8003 49.4506 -4.2593 -23.5774 -102.089 -174.46 44.4746 93.4799 -66.6757 -10.1645 1.92524 74.3962 -2.95832 -27.344 90.418 5.03702 19.2227 163.972 10.0468 61.4772 -24.1898 9.09385 -1.37507 55.1249 7.45357 14.9794 31.9024 2.05079 14.8767 -0.671294 7.32083 -88.6976 12.2335 -0.717194 2.67964 0.559982 -0.598604 2.7086 -21.9589 -1.48918 2.34057 -1.94627 -1.48918 2.34053 106.127 -42.713 -75.372 22.4699 59.4431 -16.299 -17.7112 7.35165 -156.752 -46.8314 -9.37758 16.6113 -75.8219 -24.7495 101.147 -38.537 -17.244 -85.8405 35.8288 -16.061 -115.338 8.44848 1.02089 7.32426 38.1629 10.1238 57.6476 -20.615 -13.0493 -44.9113 
-46.7787 22.9694 45.1307 -6.98434 -29.1085 -99.1455 -176.47 50.986 100.273 -74.8289 -9.85447 2.97058 75.5764 -3.05676 -27.8946 85.3044 5.82957 21.1112 166.686 7.15801 66.7581 -27.0309 3.90052 -2.22718 58.1674 4.39271 10.4867 81.99 5.69635 28.6367 -1.1633 7.62249 -88.5478 11.6428 -1.6334 3.0647 -0.030933 -1.497 3.13352 -22.5541 -2.47867 2.43262 -2.54146 -2.47868 2.43262 105.791 -39.8793 -75.7013 32.4976 66.3205 -22.3218 -17.6488 6.51647 -156.49 -41.3704 -9.19855 19.3212 -75.2699 -18.1925 103.142 -42.1367 -18.0878 -99.5489 32.7069 -6.27267 -106.604 5.28222 0.633167 6.45785 37.4583 4.97277 47.9879 -17.2393 -13.9757 -41.0382 
-43.4262 21.1203 41.5015 -7.93721 -35.0991 -96.5393 -179.742 56.4996 106.009 -79.4541 -8.28923 3.59349 76.8265 -1.83871 -25.5129 82.1268 6.76023 23.3015 168.547 3.03083 73.6238 -29.9847 9.946 -3.216 70.5553 -1.54262 11.2115 86.2921 7.25668 30.001 -1.80039 7.76139 -88.2178 11.3856 -2.75107 3.82763 -0.288449 -2.58008 3.94477 -22.8195 -3.77378 2.8245 -2.80686 -3.77377 2.82449 106.495 -36.1592 -74.0033 37.9326 66.6904 -22.7257 -18.6432 11.2011 -155.79 -31.0713 -7.46332 21.7233 -75.5022 -5.95149 104.047 -49.5445 -18.5583 -109.036 31.6499 -0.678166 -98.7108 6.72247 0.700997 5.55478 40.275 1.18979 37.4862 -16.1984 -14.0912 -35.4127 
